<?xml version="1.0" standalone="no"?><!DOCTYPE svg PUBLIC "-//W3C//DTD SVG 1.1//EN" "http://www.w3.org/Graphics/SVG/1.1/DTD/svg11.dtd"><svg t="1681433465901" class="icon" viewBox="0 0 1024 1024" version="1.1" xmlns="http://www.w3.org/2000/svg" p-id="6207" xmlns:xlink="http://www.w3.org/1999/xlink" width="200" height="200"><path d="M280.8 960h-65.9c-0.8 0-1.5-0.7-1.5-1.5V846.6c0-0.8 0.7-1.5 1.5-1.5h65.9c0.8 0 1.5 0.7 1.5 1.5v111.9c0 0.8-0.7 1.5-1.5 1.5zM809.2 960h-65.9c-0.8 0-1.5-0.7-1.5-1.5V846.6c0-0.8 0.7-1.5 1.5-1.5h65.9c0.8 0 1.5 0.7 1.5 1.5v111.9c0 0.8-0.7 1.5-1.5 1.5z" fill="#7068BA" p-id="6208"></path><path d="M822.2 879.6H201.8c-57 0-103.4-46.4-103.4-103.4V397.1c0-57 46.4-103.4 103.4-103.4h620.3c57 0 103.4 46.4 103.4 103.4v379.1c0 57-46.3 103.4-103.3 103.4zM201.8 362.7c-19 0-34.5 15.5-34.5 34.5v379.1c0 19 15.5 34.5 34.5 34.5h620.3c19 0 34.5-15.5 34.5-34.5V397.1c0-19-15.5-34.5-34.5-34.5H201.8z" fill="#7068BA" p-id="6209"></path><path d="M512.8 352c-8.8 0-17.6-3.4-24.4-10.1l-219-219.1c-13.5-13.5-13.5-35.3 0-48.7 13.5-13.5 35.3-13.5 48.7 0l219.1 219.1c13.5 13.5 13.5 35.3 0 48.7-6.8 6.7-15.6 10.1-24.4 10.1z" fill="#7068BA" p-id="6210"></path><path d="M500.5 352c-8.8 0-17.6-3.4-24.4-10.1-13.5-13.5-13.5-35.3 0-48.7L695.2 74.1c13.5-13.5 35.3-13.5 48.7 0s13.5 35.3 0 48.7l-219 219.1c-6.8 6.7-15.6 10.1-24.4 10.1z" fill="#7068BA" p-id="6211"></path></svg>