<?xml version="1.0" standalone="no"?>
<!DOCTYPE svg PUBLIC "-//W3C//DTD SVG 20010904//EN"
 "http://www.w3.org/TR/2001/REC-SVG-20010904/DTD/svg10.dtd">
<svg version="1.0" xmlns="http://www.w3.org/2000/svg"
 width="330.000000pt" height="330.000000pt" viewBox="0 0 330.000000 330.000000"
 preserveAspectRatio="xMidYMid meet">

<g transform="translate(0.000000,330.000000) scale(0.100000,-0.100000)"
fill="#000000" stroke="none">
<path d="M1167 3023 c-8 -16 -38 -97 -68 -182 -42 -123 -59 -160 -83 -180 -99
-86 -125 -115 -168 -198 -25 -48 -56 -124 -68 -168 -12 -44 -25 -90 -29 -103
l-6 -23 -35 26 c-95 72 -226 115 -344 115 -44 0 -87 -4 -94 -8 -7 -5 14 -6 46
-4 83 6 204 -21 297 -67 93 -46 137 -86 129 -118 -5 -19 -8 -19 -32 -8 -79 38
-304 44 -376 10 -50 -24 -41 -27 24 -10 72 19 221 19 295 0 72 -19 80 -25 83
-64 2 -30 1 -31 -37 -31 -51 0 -137 -32 -176 -65 l-30 -26 52 26 c48 23 151
55 179 55 6 0 23 -17 37 -39 59 -89 169 -165 285 -197 34 -10 62 -21 62 -25 0
-4 -9 -60 -20 -124 -13 -76 -20 -163 -20 -247 0 -116 4 -144 35 -264 46 -176
102 -329 180 -489 34 -71 68 -151 75 -176 11 -45 11 -46 -19 -77 -37 -36 -42
-83 -11 -109 11 -10 20 -23 20 -29 0 -6 9 -23 21 -38 16 -20 29 -26 59 -26 21
0 42 -4 45 -10 10 -16 113 -12 140 6 19 13 27 13 44 3 17 -11 43 -9 155 10 94
16 151 21 189 16 45 -6 63 -3 108 18 30 13 66 27 81 30 39 10 82 50 103 96 12
28 34 51 66 72 63 40 86 68 137 166 73 141 84 231 52 453 -23 160 14 275 119
373 66 60 123 91 214 113 136 33 160 56 114 110 -30 34 -95 41 -189 21 -134
-29 -281 -148 -343 -278 -53 -111 -61 -167 -47 -297 7 -59 12 -159 12 -222 0
-106 -2 -120 -29 -176 -16 -34 -33 -64 -39 -67 -5 -4 -12 28 -15 76 -13 173
-117 440 -214 547 -61 68 -193 166 -279 207 -60 29 -77 43 -114 96 -58 82
-147 175 -190 198 -19 10 -28 18 -19 19 20 0 89 -49 148 -104 24 -23 39 -32
33 -20 -12 22 -82 89 -122 115 -14 9 -23 18 -20 20 3 2 33 18 67 36 l62 32 58
-43 c32 -24 74 -60 92 -80 19 -20 39 -36 44 -36 20 0 -41 66 -110 118 l-75 56
26 19 c15 10 38 39 52 63 14 24 30 44 35 44 14 0 132 -46 180 -70 43 -22 44
-22 25 -2 -19 22 -152 82 -180 82 -22 0 -20 19 8 81 14 30 30 90 36 134 7 44
21 102 32 129 10 27 26 86 35 130 17 86 23 292 10 339 -7 25 -11 28 -35 23
-47 -11 -147 -64 -216 -114 l-66 -49 -56 28 c-30 16 -91 36 -134 45 -70 15
-79 20 -85 43 -11 43 -90 203 -124 249 -37 49 -64 54 -84 15z m52 -48 c25 -53
26 -65 6 -65 -9 0 -38 -21 -66 -46 l-49 -47 35 97 c19 53 35 99 35 101 0 3 4
5 9 5 5 0 18 -20 30 -45z m708 -281 c-4 -37 -8 -68 -10 -70 -2 -2 -17 1 -33 8
-24 9 -36 7 -69 -9 -28 -13 -52 -17 -78 -13 l-39 5 29 26 c45 42 166 119 187
119 17 0 18 -6 13 -66z m-1066 -328 c-27 -28 -41 -148 -22 -184 10 -18 9 -21
-4 -16 -8 3 -20 24 -26 45 -16 52 3 142 34 164 33 23 43 18 18 -9z m383 -122
c-16 -38 -17 -116 -2 -146 4 -9 16 -24 25 -34 17 -17 16 -17 -17 -11 -47 9
-90 57 -90 100 0 42 30 99 61 114 36 19 39 16 23 -23z m-343 -7 c-8 -8 -11 -7
-11 4 0 20 13 34 18 19 3 -7 -1 -17 -7 -23z m539 -57 c0 -40 -30 -93 -68 -118
-20 -13 -22 -13 -16 2 3 9 10 16 14 16 18 0 43 90 37 137 l-5 48 19 -24 c11
-13 19 -39 19 -61z m-60 -22 c0 -16 -3 -19 -11 -11 -6 6 -8 16 -5 22 11 17 16
13 16 -11z"/>
</g>
</svg>
